<svg width="42" height="40" viewBox="0 0 42 40" fill="none" xmlns="http://www.w3.org/2000/svg">
<rect width="42" height="40" rx="20" fill="#989898" fill-opacity="0.17"/>
<path d="M13.125 11.6C13.125 9.99817 14.3733 8.625 15.9997 8.625H26.0003C27.6278 8.625 28.875 9.99817 28.875 11.6V28.4C28.875 30.0018 27.6267 31.375 26.0003 31.375H15.9997C14.3722 31.375 13.125 30.0018 13.125 28.4V11.6ZM19.25 12.125C19.0179 12.125 18.7954 12.2172 18.6313 12.3813C18.4672 12.5454 18.375 12.7679 18.375 13C18.375 13.2321 18.4672 13.4546 18.6313 13.6187C18.7954 13.7828 19.0179 13.875 19.25 13.875H22.75C22.9821 13.875 23.2046 13.7828 23.3687 13.6187C23.5328 13.4546 23.625 13.2321 23.625 13C23.625 12.7679 23.5328 12.5454 23.3687 12.3813C23.2046 12.2172 22.9821 12.125 22.75 12.125H19.25Z" fill="black"/>
</svg>
