<svg width="42" height="40" viewBox="0 0 42 40" fill="none" xmlns="http://www.w3.org/2000/svg">
<rect width="42" height="40" rx="20" fill="#989898" fill-opacity="0.17"/>
<g clip-path="url(#clip0_160_1874)">
<path d="M21 7.75C14.2625 7.75 8.75 13.2625 8.75 20C8.75 26.7375 14.2625 32.25 21 32.25C27.7375 32.25 33.25 26.7375 33.25 20C33.25 13.2625 27.7375 7.75 21 7.75ZM16.5069 23.0625C15.8931 23.0824 15.2874 22.9172 14.7687 22.5885C14.2499 22.2598 13.842 21.7827 13.5978 21.2192C13.3536 20.6556 13.2845 20.0317 13.3995 19.4284C13.5144 18.8251 13.8081 18.2703 14.2423 17.8361C14.6766 17.4018 15.2314 17.1082 15.8347 16.9932C16.438 16.8783 17.0619 16.9474 17.6254 17.1915C18.1889 17.4357 18.666 17.8437 18.9947 18.3624C19.3235 18.8812 19.4886 19.4868 19.4687 20.1006C19.4436 20.8782 19.1235 21.617 18.5734 22.1671C18.0233 22.7172 17.2844 23.0373 16.5069 23.0625ZM25.6944 23.0625C25.0805 23.0824 24.4749 22.9172 23.9562 22.5885C23.4374 22.2598 23.0295 21.7827 22.7853 21.2192C22.5411 20.6556 22.472 20.0317 22.587 19.4284C22.7019 18.8251 22.9956 18.2703 23.4298 17.8361C23.8641 17.4018 24.4189 17.1082 25.0222 16.9932C25.6255 16.8783 26.2494 16.9474 26.8129 17.1915C27.3764 17.4357 27.8535 17.8437 28.1822 18.3624C28.511 18.8812 28.6761 19.4868 28.6562 20.1006C28.6311 20.8782 28.311 21.617 27.7609 22.1671C27.2108 22.7172 26.4719 23.0373 25.6944 23.0625Z" fill="black"/>
<path d="M34.7266 17.5478C34.649 17.4827 33.9473 16.9495 32.4412 16.9495C32.0451 16.9518 31.6499 16.9865 31.2594 17.0534C30.974 15.0628 29.3246 14.1003 29.2595 14.0456L28.857 13.8115L28.5973 14.1889C28.2698 14.7012 28.0285 15.2637 27.883 15.8541C27.6096 16.9861 27.7791 18.0525 28.3506 18.9631C27.6621 19.3536 26.5459 19.4443 26.3119 19.4553H7.87179C7.75688 19.4552 7.64309 19.4779 7.53697 19.5219C7.43085 19.566 7.33451 19.6307 7.25348 19.7122C7.17246 19.7937 7.10835 19.8904 7.06486 19.9967C7.02137 20.1031 6.99935 20.217 7.00007 20.3319C6.97536 21.9508 7.2488 23.5605 7.80671 25.0804C8.44327 26.7457 9.39101 27.9843 10.6094 28.7357C11.9887 29.5812 14.2352 30.0625 16.7673 30.0625C17.9128 30.0626 19.056 29.958 20.1825 29.7502C21.753 29.4654 23.2637 28.9156 24.6499 28.1243C25.7911 27.4613 26.8173 26.6178 27.6889 25.6268C29.1562 23.9746 30.0262 22.1268 30.6628 20.4861H30.9226C32.52 20.4861 33.5071 19.8485 34.0523 19.3021C34.4142 18.9592 34.6978 18.542 34.8836 18.0793L35.0006 17.7414L34.7266 17.5478Z" fill="black"/>
<path d="M9.58618 18.9265H12.0531C12.1112 18.9265 12.1668 18.9034 12.2078 18.8624C12.2488 18.8214 12.2719 18.7657 12.2719 18.7077V16.494C12.2719 16.436 12.2488 16.3803 12.2078 16.3393C12.1668 16.2983 12.1112 16.2752 12.0531 16.2752H9.58618C9.52817 16.2752 9.47253 16.2983 9.4315 16.3393C9.39048 16.3803 9.36743 16.436 9.36743 16.494V18.7055C9.3696 18.7629 9.39334 18.8173 9.4339 18.8578C9.47447 18.8984 9.52886 18.9221 9.58618 18.9243M12.9883 18.9265H15.4558C15.5138 18.9265 15.5694 18.9034 15.6105 18.8624C15.6515 18.8214 15.6745 18.7657 15.6745 18.7077V16.494C15.6745 16.436 15.6515 16.3803 15.6105 16.3393C15.5694 16.2983 15.5138 16.2752 15.4558 16.2752H12.9883C12.9303 16.2752 12.8746 16.2983 12.8336 16.3393C12.7926 16.3803 12.7695 16.436 12.7695 16.494V18.7055C12.7717 18.7629 12.7954 18.8173 12.836 18.8578C12.8766 18.8984 12.931 18.9221 12.9883 18.9243M16.4555 18.9265H18.9219C18.9799 18.9265 19.0355 18.9034 19.0766 18.8624C19.1176 18.8214 19.1406 18.7657 19.1406 18.7077V16.494C19.1406 16.436 19.1176 16.3803 19.0766 16.3393C19.0355 16.2983 18.9799 16.2752 18.9219 16.2752H16.4555C16.3975 16.2752 16.3418 16.2983 16.3008 16.3393C16.2598 16.3803 16.2367 16.436 16.2367 16.494V18.7055C16.2357 18.7345 16.2407 18.7634 16.2514 18.7904C16.262 18.8174 16.2781 18.8419 16.2986 18.8624C16.3191 18.8829 16.3436 18.899 16.3706 18.9097C16.3976 18.9203 16.4265 18.9253 16.4555 18.9243M19.8713 18.9265H22.3388C22.3968 18.9265 22.4524 18.9034 22.4934 18.8624C22.5345 18.8214 22.5575 18.7657 22.5575 18.7077V16.494C22.5575 16.436 22.5345 16.3803 22.4934 16.3393C22.4524 16.2983 22.3968 16.2752 22.3388 16.2752H19.8713C19.8132 16.2752 19.7576 16.2983 19.7166 16.3393C19.6756 16.3803 19.6525 16.436 19.6525 16.494V18.7055C19.6525 18.7636 19.6756 18.8192 19.7166 18.8602C19.7576 18.9012 19.8132 18.9243 19.8713 18.9243M12.9883 15.7655H15.4558C15.5131 15.7634 15.5675 15.7396 15.6081 15.6991C15.6486 15.6585 15.6724 15.6041 15.6745 15.5468V13.333C15.6745 13.275 15.6515 13.2194 15.6105 13.1784C15.5694 13.1373 15.5138 13.1143 15.4558 13.1143H12.9883C12.9303 13.1143 12.8746 13.1373 12.8336 13.1784C12.7926 13.2194 12.7695 13.275 12.7695 13.333V15.5446C12.7738 15.6012 12.7982 15.6544 12.8384 15.6945C12.8785 15.7347 12.9317 15.7591 12.9883 15.7634M16.4555 15.7655H18.9219C18.9792 15.7634 19.0336 15.7396 19.0742 15.6991C19.1147 15.6585 19.1385 15.6041 19.1406 15.5468V13.333C19.1406 13.275 19.1176 13.2194 19.0766 13.1784C19.0355 13.1373 18.9799 13.1143 18.9219 13.1143H16.4555C16.3975 13.1143 16.3418 13.1373 16.3008 13.1784C16.2598 13.2194 16.2367 13.275 16.2367 13.333V15.5446C16.2367 15.6026 16.2598 15.6583 16.3008 15.6993C16.3418 15.7403 16.3975 15.7634 16.4555 15.7634M19.8713 15.7655H22.3388C22.3961 15.7634 22.4505 15.7396 22.491 15.6991C22.5316 15.6585 22.5553 15.6041 22.5575 15.5468V13.333C22.5553 13.2757 22.5316 13.2213 22.491 13.1808C22.4505 13.1402 22.3961 13.1165 22.3388 13.1143H19.8713C19.8132 13.1143 19.7576 13.1373 19.7166 13.1784C19.6756 13.2194 19.6525 13.275 19.6525 13.333V15.5446C19.6547 15.6019 19.6784 15.6563 19.719 15.6969C19.7595 15.7375 19.8139 15.7612 19.8713 15.7634M19.8713 12.5915H22.3388C22.3968 12.5915 22.4524 12.5684 22.4934 12.5274C22.5345 12.4864 22.5575 12.4307 22.5575 12.3727V10.1562C22.5553 10.0989 22.5316 10.0445 22.491 10.004C22.4505 9.96341 22.3961 9.93967 22.3388 9.9375H19.8713C19.8132 9.9375 19.7576 9.96055 19.7166 10.0016C19.6756 10.0426 19.6525 10.0982 19.6525 10.1562V12.3678C19.6548 12.4251 19.6786 12.4794 19.7191 12.52C19.7597 12.5605 19.814 12.5843 19.8713 12.5866M23.3122 18.9265H25.7797C25.8377 18.9265 25.8933 18.9034 25.9344 18.8624C25.9754 18.8214 25.9984 18.7657 25.9984 18.7077V16.494C25.9984 16.436 25.9754 16.3803 25.9344 16.3393C25.8933 16.2983 25.8377 16.2752 25.7797 16.2752H23.3122C23.2542 16.2752 23.1985 16.2983 23.1575 16.3393C23.1165 16.3803 23.0934 16.436 23.0934 16.494V18.7055C23.0956 18.7629 23.1194 18.8173 23.1599 18.8578C23.2005 18.8984 23.2549 18.9221 23.3122 18.9243" fill="black"/>
</g>
<defs>
<clipPath id="clip0_160_1874">
<rect width="28" height="28" fill="white" transform="translate(7 6)"/>
</clipPath>
</defs>
</svg>
