<svg width="42" height="40" viewBox="0 0 42 40" fill="none" xmlns="http://www.w3.org/2000/svg">
<rect width="42" height="40" rx="20" fill="#989898" fill-opacity="0.17"/>
<path d="M17.2666 18.7752L19.7749 16.2377L18.1416 14.5752L16.8582 15.8585L15.2249 14.2252L16.4791 12.9418L15.1666 11.6293L12.6291 14.1668L17.2666 18.7752ZM26.8332 28.371L29.3707 25.8335L28.0582 24.521L26.7749 25.7752L25.1416 24.1418L26.3957 22.8585L24.7332 21.2252L22.2249 23.7335L26.8332 28.371ZM25.9291 13.496L27.5624 15.1293L29.1957 13.496L27.5332 11.8335L25.9291 13.496ZM15.4583 30.5002H10.4999V25.5418L15.6041 20.4377L9.33325 14.1668L15.1666 8.3335L21.4666 14.6335L27.5624 8.5085L32.4624 13.4668L26.3957 19.5627L32.6666 25.8335L26.8332 31.6668L20.5624 25.396L15.4583 30.5002Z" fill="black"/>
</svg>
