<svg width="42" height="40" viewBox="0 0 42 40" fill="none" xmlns="http://www.w3.org/2000/svg">
<rect width="42" height="40" rx="20" fill="#989898" fill-opacity="0.17"/>
<path fill-rule="evenodd" clip-rule="evenodd" d="M10.5 13C10.5 12.0717 10.8688 11.1815 11.5252 10.5251C12.1815 9.86875 13.0718 9.5 14 9.5H28C28.9283 9.5 29.8185 9.86875 30.4749 10.5251C31.1313 11.1815 31.5 12.0717 31.5 13V22.058L33.1882 25.4343C34.3525 27.7618 32.6597 30.5 30.058 30.5H11.942C9.34037 30.5 7.6487 27.7618 8.81187 25.4343L10.5 22.058V13ZM14 11.8333C13.6906 11.8333 13.3939 11.9562 13.1751 12.175C12.9563 12.3938 12.8334 12.6906 12.8334 13V18.8333C12.8334 19.1428 12.9563 19.4395 13.1751 19.6583C13.3939 19.8771 13.6906 20 14 20H28C28.3094 20 28.6062 19.8771 28.825 19.6583C29.0438 19.4395 29.1667 19.1428 29.1667 18.8333V13C29.1667 12.6906 29.0438 12.3938 28.825 12.175C28.6062 11.9562 28.3094 11.8333 28 11.8333H14Z" fill="black"/>
</svg>
